<svg id="Layer_1" data-name="Layer 1" xmlns="http://www.w3.org/2000/svg" viewBox="0 0 231.7 56.82"><defs><style>.cls-1{fill:#878787;}</style></defs><title>logo</title><path class="cls-1" d="M63.54,29c0,4.48-3.4,7.16-9.48,7.16H41V35.29h0.24c3.68,0,3.8-1,3.8-3.88V14.52c0-2.92-.2-3.8-4.08-3.8V9.81c3.84-.36,7.08-0.48,9.64-0.48,7.64,0,11.28,1.48,11.28,6.2,0,3.44-2.28,5.44-6.84,6.24C60.7,22.45,63.54,24.85,63.54,29ZM49,21.37h2.4c4.36,0,6.48-1.64,6.48-5.6s-2.08-5.52-6.48-5.52H49V21.37Zm0,11.12c0,2,1,2.6,3.84,2.6,4,0,6.28-2.16,6.28-6.2,0-4.28-2.28-6.4-6.84-6.4H49v10Z"/><path class="cls-1" d="M79,9.65v0.92H78.74c-3.68,0-3.84,1-3.84,3.8V32.08c0,2.44.6,3.2,3.8,3.2H79v0.92H66.82V35.29h0.24c3.64,0,3.84-1,3.84-3.8V14.37c0-2.92-.2-3.8-4.08-3.8V9.65H79Z"/><path class="cls-1" d="M89.14,9.65l15.08,20.44V14.37c0-2.64-1.08-3.76-4.28-3.8V9.65h9.44v0.92c-3.28.08-4.28,1.16-4.28,3.8v22.4h-0.6l-18.4-25V31.45c0,2.64,1,3.8,4.28,3.84v0.92H80.94V35.29c3.28,0,4.24-1.2,4.24-3.84V14.17c0-2.56-.32-3.6-2.6-3.6H81.5V9.65h7.64Z"/><path class="cls-1" d="M134.3,10H135l0.16,8.72h-0.72c-1.8-5.84-4.76-8.64-9.56-8.64-5.44,0-9.08,4.36-9.08,12.84s3.52,12.64,9.24,12.64a8,8,0,0,0,5.72-2.12c0.76-.84,1-2.28,1-4.4,0-2.56-.56-3.24-3.16-3.24h-0.72v-1h11.32v0.92c-3,.08-3.8.8-3.8,3.56v5.16c-0.16,0-.32,0-0.48,0-2.92,0-5.88,2.32-10.56,2.32-7.68,0-13-5.16-13-13.56C111.38,14.52,117.26,9,124,9a12.15,12.15,0,0,1,9.16,3.84A12.45,12.45,0,0,0,134.3,10Z"/><path class="cls-1" d="M141.3,35.29h0.24c3.72,0,3.8-1,3.8-3.88V13.29c0-1.88-1-2.56-3.6-2.56H141.3V9.81a100.94,100.94,0,0,1,10.8-.72c10.68,0,16.28,5.4,16.28,14a13.86,13.86,0,0,1-3.64,9.72c-2.6,2.64-5.64,3.44-9.92,3.44H141.3V35.29Zm8-2.72c0,2,1.12,2.76,4.24,2.76,6.72,0,10.44-4.32,10.44-12.24,0-8.52-4-13.08-11.64-13.08-0.56,0-1.56,0-3,.12V32.57Z"/><path class="cls-1" d="M186.3,9.08c8.92,0,14.32,5.4,14.32,13.8S195.1,36.76,186.3,36.76s-14.36-5.4-14.36-13.88S177.38,9.08,186.3,9.08Zm-9.92,13.6c0,8.76,3.36,13.16,9.88,13.16s9.92-4.36,9.92-12.92S192.7,10,186.26,10,176.38,14.37,176.38,22.69Z"/><path class="cls-1" d="M211.46,9.65l15.08,20.44V14.37c0-2.64-1.08-3.76-4.28-3.8V9.65h9.44v0.92c-3.28.08-4.28,1.16-4.28,3.8v22.4h-0.6l-18.4-25V31.45c0,2.64,1,3.8,4.28,3.84v0.92h-9.44V35.29c3.28,0,4.24-1.2,4.24-3.84V14.17c0-2.56-.32-3.6-2.6-3.6h-1.08V9.65h7.64Z"/><path class="cls-1" d="M31.54,29.95c1.46,3.58,2.27,5.37,5.29,5.59v1.25H23.22V35.53h1.3c1.84,0,2.75-.65,2.75-1.9a5.78,5.78,0,0,0-.54-2.06l-3.08-7.76H10l-2.43,5.8a8,8,0,0,0-.65,2.82c0,1.74,1.35,2.88,3.78,3.09v1.25H0V35.53c3.29-.6,4.54-2.5,5.83-5.7L18,0.22,19.28,0Zm-21-7.65H23L16.79,7.11Z"/><path class="cls-1" d="M66,49.58H62.8v2.27H66v1.06H62.8v3.81H61.63V48.52H66v1.06Z"/><path class="cls-1" d="M75.61,55.66h3.7v1.06H74.43V48.52h1.18v7.13Z"/><path class="cls-1" d="M91.55,48.42a4.21,4.21,0,1,1-4.39,4.2A4.17,4.17,0,0,1,91.55,48.42Zm0,7.32a3.12,3.12,0,1,0-3.18-3.12A3.07,3.07,0,0,0,91.55,55.74Z"/><path class="cls-1" d="M108.63,48.42a4.21,4.21,0,1,1-4.39,4.2A4.17,4.17,0,0,1,108.63,48.42Zm0,7.32a3.12,3.12,0,1,0-3.18-3.12A3.07,3.07,0,0,0,108.63,55.74Z"/><path class="cls-1" d="M123.76,48.52c1.66,0,2.69.88,2.69,2.29a2,2,0,0,1-1.37,2,6.7,6.7,0,0,1,1.82,2.27c0.35,0.56.55,0.84,1.12,1.62h-1.4L125.54,55c-1.08-1.68-1.57-1.87-2.17-1.87h-0.49v3.55H121.7V48.52h2.06Zm-0.89,3.58h0.76c1.26,0,1.62-.65,1.61-1.33s-0.47-1.24-1.61-1.24h-0.76V52.1Z"/><path class="cls-1" d="M137.31,56.71h-1.18V48.52h1.18v8.19Z"/><path class="cls-1" d="M153.89,56.71h-1l-5.47-6.3v6.3h-1.1V48.52h0.94l5.54,6.34V48.52h1.1v8.19Z"/><path class="cls-1" d="M170.07,56.15a7.17,7.17,0,0,1-3.12.67,4.13,4.13,0,0,1-4.36-4.16A4.24,4.24,0,0,1,167,48.42a6.68,6.68,0,0,1,2.92.7V50.3a6.1,6.1,0,0,0-2.94-.8,3.12,3.12,0,1,0,.15,6.24,5.77,5.77,0,0,0,1.78-.32V53.74h-1.57V52.68h2.75v3.47Z"/></svg>