<?xml version="1.0" encoding="UTF-8" standalone="no"?>
<svg version="1.1"
     baseProfile="full"
     xmlns="http://www.w3.org/2000/svg"
     xmlns:xlink="http://www.w3.org/1999/xlink"
     xmlns:ev="http://www.w3.org/2001/xml-events"
     width="500" 
     height="500"
     preserveAspectRatio="xMinYMin meet" 
     viewBox="0 0 550 550"
     >
  <g
     transform="translate(-149.33907,-250.74268)"
     id="layer1">
    <g
       transform="translate(5.4037657,-10.7534)"
       id="layer1-9">
      <g
         transform="matrix(4.4097731,0,0,-4.4097731,-7922.0744,9363.7548)"
         id="g3045">
        <path
           d="m 1830.2551,1961.8766 101.05,0 0,101.1 -101.05,0 0,-101.1 z"
           id="path3047"
           style="fill:#134b6b;fill-opacity:1;fill-rule:nonzero;stroke:none" />
        <path
           d="m 1843.2251,1942.5366 c -1.07,-0.69 -2.21,-1.03 -3.44,-1.03 -1.95,0 -3.09,1.05 -3.09,2.78 0,2.33 2.14,3.56 6.55,4.06 l 0,0.81 c 0,0.76 -0.58,1.19 -1.63,1.19 -1.06,0 -1.92,-0.41 -2.54,-1.19 l -1.85,1.06 c 0.97,1.35 2.45,2.02 4.43,2.02 2.71,0 4.23,-1.17 4.23,-3.08 l 0,-6.12 c 0,-0.36 0.07,-0.84 0.18,-1.41 l -2.6,0 -0.24,0.91 z m -3.84,1.95 c 0,-0.7 0.44,-1.11 1.23,-1.11 0.86,0 1.7,0.35 2.54,1.09 l 0,2.23 c -2.56,-0.32 -3.77,-0.98 -3.77,-2.21 z"
           id="path3049"
           style="fill:#134b6b;fill-opacity:1;fill-rule:evenodd;stroke:none" />
        <path
           d="m 1860.4151,1956.0766 2.74,0 0,-14.45 -2.74,0 0,14.45 z"
           id="path3051"
           style="fill:#134b6b;fill-opacity:1;fill-rule:nonzero;stroke:none" />
        <path
           d="m 1881.9251,1943.5366 c 0.28,0 0.68,0.02 1.12,0.08 l 0,-2.03 c -0.42,-0.08 -1.19,-0.18 -2.27,-0.18 -1.9,0 -2.71,0.76 -2.71,2.44 l 0,6.17 -1.5,0 0,2.02 1.5,0 0,3.34 2.73,0 0,-3.34 2.25,0 0,-2.02 -2.25,0 0,-5.27 c 0,-0.87 0.13,-1.21 1.13,-1.21 z"
           id="path3053"
           style="fill:#134b6b;fill-opacity:1;fill-rule:nonzero;stroke:none" />
        <path
           d="m 1896.5451,1952.0366 2.6,0 0,-1.73 c 0.75,1.28 1.72,1.91 2.87,1.91 0.11,0 0.24,0 0.35,-0.02 l 0,-2.56 -0.13,0 c -1.19,0 -2.27,-0.58 -2.91,-1.63 l 0,-6.38 -2.78,0 0,10.41 z"
           id="path3055"
           style="fill:#134b6b;fill-opacity:1;fill-rule:nonzero;stroke:none" />
        <path
           d="m 1919.8951,1952.2366 c 3.09,0 4.94,-1.98 4.94,-5.41 0,-3.41 -1.87,-5.4 -4.94,-5.4 -3.06,0 -4.94,2.01 -4.94,5.4 0,3.43 1.85,5.41 4.94,5.41 z m 0,-8.7 c 1.48,0 2.19,1.09 2.19,3.29 0,2.21 -0.71,3.29 -2.19,3.29 -1.45,0 -2.18,-1.08 -2.18,-3.29 0,-2.2 0.73,-3.29 2.18,-3.29 z"
           id="path3057"
           style="fill:#134b6b;fill-opacity:1;fill-rule:evenodd;stroke:none" />
        <path
           d="m 1885.9951,1985.0966 -11.14,8.12 1.34,-4.46 -4.01,0.01 0.03,13.07 -35.53,0 0,-7.29 25.52,0 0,-5.79 -25.5,0 -0.03,-21.1 35.52,0 0,13.81 3.99,-0.01 -1.34,-4.46 11.15,8.1 z m -23.8,-10.15 -15.51,0.01 0,6.51 15.51,0 0,-6.52 z"
           id="path3059"
           style="fill:#ffffff;fill-opacity:1;fill-rule:evenodd;stroke:none" />
      </g>
    </g>
  </g>
</svg>
