<?xml version="1.0" encoding="utf-8"?>
<!-- Generator: Adobe Illustrator 19.1.0, SVG Export Plug-In . SVG Version: 6.00 Build 0)  -->
<svg version="1.1" id="Layer_1" xmlns="http://www.w3.org/2000/svg" xmlns:xlink="http://www.w3.org/1999/xlink" x="0px" y="0px"
	 viewBox="0 0 176.1 79.5" style="enable-background:new 0 0 176.1 79.5;" xml:space="preserve">
<style type="text/css">
	.st0{opacity:0.9;fill:#E9E9C6;}
	.st1{fill:url(#SVGID_1_);}
	.st2{fill:#E9E9C6;}
	.st3{fill:url(#SVGID_2_);}
	.st4{fill:#E9E9C6;fill-opacity:0.9;}
	.st5{fill:url(#SVGID_3_);}
</style>
<ellipse class="st0" cx="88" cy="39.7" rx="88" ry="39.7"/>
<radialGradient id="SVGID_1_" cx="88.0354" cy="39.7446" r="89.9599" gradientUnits="userSpaceOnUse">
	<stop  offset="0" style="stop-color:#851A5C"/>
	<stop  offset="0.5389" style="stop-color:#831B5B"/>
	<stop  offset="0.7695" style="stop-color:#7C1F56"/>
	<stop  offset="0.941" style="stop-color:#6F264E"/>
	<stop  offset="1" style="stop-color:#692A4A"/>
</radialGradient>
<path class="st1" d="M88,76.6c-11.7,0-23-1-33.7-3.1c-10.3-2-19.5-4.8-27.3-8.3c-7.7-3.5-13.8-7.5-17.9-12C5,48.9,2.9,44.3,2.9,39.7
	S5,30.6,9,26.3c4.2-4.5,10.2-8.5,17.9-12c7.9-3.6,17.1-6.4,27.3-8.3C65,4,76.3,2.9,88,2.9s23,1,33.7,3.1c10.3,2,19.5,4.8,27.3,8.3
	c7.7,3.5,13.8,7.5,17.9,12c4.1,4.3,6.1,8.9,6.1,13.5s-2.1,9.1-6.1,13.5c-4.2,4.5-10.2,8.5-17.9,12c-7.9,3.6-17.1,6.4-27.3,8.3
	C111.1,75.5,99.7,76.6,88,76.6z"/>
<g>
	<path class="st2" d="M88,75.2c-11.6,0-22.9-1-33.5-3c-10.2-1.9-19.2-4.7-27-8.2c-7.6-3.4-13.5-7.3-17.5-11.7
		C6.2,48.2,4.3,44,4.3,39.7c0-4.2,1.9-8.5,5.8-12.5c4-4.3,9.9-8.2,17.5-11.7c7.8-3.5,16.9-6.3,27-8.2c10.6-2,21.8-3,33.5-3
		s22.9,1,33.5,3c10.2,1.9,19.2,4.7,27,8.2c7.6,3.4,13.5,7.3,17.5,11.7c3.8,4.1,5.8,8.3,5.8,12.5c0,4.2-1.9,8.5-5.8,12.5
		c-4,4.3-9.9,8.2-17.5,11.7c-7.8,3.5-16.9,6.3-27,8.2C110.9,74.2,99.7,75.2,88,75.2z M88,5c-11.6,0-22.8,1-33.3,3
		c-10.1,1.9-19.1,4.7-26.9,8.2c-7.5,3.4-13.3,7.2-17.3,11.5c-3.7,3.9-5.6,8-5.6,12s1.9,8.1,5.6,12c4,4.2,9.8,8.1,17.3,11.5
		c7.7,3.5,16.8,6.2,26.9,8.2c10.5,2,21.8,3,33.3,3s22.8-1,33.3-3c10.1-1.9,19.1-4.7,26.9-8.2c7.5-3.4,13.3-7.2,17.3-11.5
		c3.7-3.9,5.6-8,5.6-12s-1.9-8.1-5.6-12c-4-4.2-9.8-8.1-17.3-11.5c-7.7-3.5-16.8-6.2-26.9-8.2C110.8,6.1,99.6,5,88,5z"/>
</g>
<linearGradient id="SVGID_2_" gradientUnits="userSpaceOnUse" x1="88.0353" y1="4.0093" x2="88.0353" y2="44.8022">
	<stop  offset="0" style="stop-color:#FFFFFF;stop-opacity:0.6"/>
	<stop  offset="0.1102" style="stop-color:#EAD7E3;stop-opacity:0.6441"/>
	<stop  offset="0.2853" style="stop-color:#CB9EBA;stop-opacity:0.7141"/>
	<stop  offset="0.4551" style="stop-color:#B26F98;stop-opacity:0.7821"/>
	<stop  offset="0.6156" style="stop-color:#9F4A7E;stop-opacity:0.8462"/>
	<stop  offset="0.7642" style="stop-color:#91306B;stop-opacity:0.9057"/>
	<stop  offset="0.8968" style="stop-color:#882060;stop-opacity:0.9587"/>
	<stop  offset="1" style="stop-color:#851A5C"/>
</linearGradient>
<path class="st3" d="M88,46.5c-8.9,0-17.6-0.6-25.7-1.8c-7.7-1.1-14.6-2.8-20.5-4.8c-5.5-1.9-9.8-4.1-12.7-6.5c-2.4-2-3.6-4-3.6-5.8
	s1.2-3.9,3.6-5.8c2.9-2.4,7.1-4.6,12.7-6.5c5.9-2.1,12.8-3.7,20.5-4.8C70.5,9.2,79.1,8.6,88,8.6s17.6,0.6,25.7,1.8
	c7.7,1.1,14.6,2.8,20.5,4.8c5.5,1.9,9.8,4.1,12.7,6.5c2.4,2,3.6,4,3.6,5.8s-1.2,3.9-3.6,5.8c-2.9,2.4-7.1,4.6-12.7,6.5
	c-5.9,2.1-12.8,3.7-20.5,4.8C105.6,45.9,97,46.5,88,46.5z"/>
<g>
	<g>
		<path class="st2" d="M29.7,36c3.8-0.1,6.9-0.9,6.9-4.5c0-2.8-2.4-4.2-4.6-4.2h-4.1v18.1h-2.6V26.1h0.9h1.7h4.3
			c4.9,0,6.9,2.4,6.9,5.3c0,6-9.4,5.3-9.4,5.3V36z"/>
	</g>
	<g>
		<path class="st2" d="M43.3,39.1c-0.1,2.3,0.2,5.2,3.3,5.5c3.3,0.3,4.7-2,4.7-2h0.6v1.2c0,0-1.6,2-5.6,1.8
			c-3.3-0.2-5.6-2.6-5.6-6.5c0-3.6,2.4-6.5,6.1-6.5c3.7,0,5.6,2.9,5.6,6.5H43.3z M49.9,38.2c0-2.4-0.5-4.6-2.8-4.6
			c-2.5,0-3.6,2.1-3.8,4.6H49.9z"/>
	</g>
	<g>
		<path class="st2" d="M56,45.3V32.9h2.5v1.5c1.1-1.2,2.6-1.8,3.8-1.8c2.5,0,4.9,1.4,4.9,4.7v8.1h-2.6v-7.9c0-2.1-0.7-3.6-2.8-3.6
			c-2.3,0-3.4,1.6-3.4,3.6v7.9H56z"/>
	</g>
	<g>
		<path class="st2" d="M78.2,44.1v1.2c-2.7,0.4-5.7,0.7-5.7-1.9V34h-2.2v-1.1h2.2v-2.6l2.5-1v3.5h3.3V34H75v9.3
			c0,2.1,2.6,0.9,2.6,0.9H78.2z"/>
	</g>
	<g>
		<path class="st2" d="M81.6,45.3V25.6h2.5v8.8c1.1-1.2,2.6-1.8,3.8-1.8c2.5,0,4.9,1.4,4.9,4.7v8.1h-2.5v-7.9c0-2.1-0.7-3.6-2.8-3.6
			c-2.3,0-3.4,1.6-3.4,3.6v7.9H81.6z"/>
	</g>
	<g>
		<path class="st2" d="M109.3,39.1c0,3.6-2.9,6.5-6.4,6.5c-3.6,0-6.5-2.9-6.5-6.5c0-3.6,2.9-6.5,6.5-6.5
			C106.4,32.6,109.3,35.5,109.3,39.1z M106.7,39.1c0-2.9-1-5.2-3.9-5.2c-2.9,0-3.9,2.3-3.9,5.2c0,2.9,1,5.2,3.9,5.2
			C105.7,44.4,106.7,42,106.7,39.1z"/>
	</g>
	<g>
		<path class="st2" d="M124.1,32.9v12.5h-2.5v-1.5c-1.1,1.2-2.6,1.8-3.8,1.8c-2.5,0-4.9-1.4-4.9-4.7v-8.1h2.6v7.9
			c0,2.1,0.7,3.6,2.8,3.6c2.3,0,3.4-1.6,3.4-3.6v-7.9H124.1z"/>
	</g>
	<g>
		<path class="st2" d="M136.3,42.5c-0.3,2.4-2.7,3.2-4.4,3.2c-2.2,0-4.1-1.3-4.1-1.3v-1.7h0.5c0.8,0.9,1.8,2,3.3,2
			c1.8,0,2.5-1.1,2.6-1.8c0.2-3.4-6.4-2.2-6.4-6.9c0-2,1.9-3.3,4.3-3.3c2.2,0,3.5,1.4,3.5,1.4v1.5H135c-0.5-0.9-1.4-1.8-2.9-1.8
			c-1.5,0-2.1,1.2-2.1,1.9C129.9,39,136.9,37.8,136.3,42.5z"/>
	</g>
</g>
<g>
	<path class="st4" d="M67.7,59h0.4v1.1c-1,0.7-2.1,1.1-3.4,1.1c-3.2,0-5.8-2.7-5.8-5.9c0-3.3,2.6-5.9,5.8-5.9c1.2,0,2.4,0.4,3.4,1.1
		v1.1h-0.4c-0.7-0.8-1.7-1.5-3-1.5c-3,0-4.3,2.3-4.3,5.1c0,2.8,1.3,5.1,4.3,5.1C66,60.5,67,59.8,67.7,59z"/>
	<path class="st4" d="M75.7,60.9v0.2h-1.4c-0.2-0.2-0.3-0.7-0.3-1c-0.7,0.7-1.4,1.1-2.4,1.1c-1,0-2-0.7-2-1.9c0-1.3,0.8-1.9,2.2-2.1
		c2.2-0.4,2.3-0.5,2.3-1.1c0-0.9-0.1-1.9-1.5-1.9c-1.1,0-1.8,0.6-1.9,1h-0.4v-0.8c0.9-0.7,1.7-0.9,2.5-0.9c1.5,0,2.8,0.9,2.8,2.3
		c0,1.2,0,2.5,0,3.8C75.4,60.4,75.5,60.7,75.7,60.9z M73.9,57.3c-1.1,0.4-3,0.2-3,2c0,0.9,0.6,1.3,1.4,1.2c0.7-0.1,1.3-0.7,1.6-1.3
		V57.3z"/>
	<path class="st4" d="M82.3,54.7H82c-0.8-0.4-2.3-0.1-2.3,1.8v4.7h-1.5v-7.5h1.5v0.9c0.7-0.7,1.6-1.1,2.7-1V54.7z"/>
	<path class="st4" d="M85.6,60.2v5.3h-1.5V53.7h1.5v1c0.6-0.7,1.5-1.1,2.4-1.1c1.9,0,3.5,1.7,3.5,3.9c0,2.2-1.6,3.9-3.5,3.9
		C87.1,61.3,86.2,60.9,85.6,60.2z M85.6,57.4c0,1.5,0.5,3.1,2.3,3.1c1.6,0,2.3-1.4,2.3-3.1c0-1.7-0.7-3.1-2.3-3.1
		C86.1,54.2,85.6,55.9,85.6,57.4z"/>
	<path class="st4" d="M94.6,57.4c-0.1,1.4,0.1,3.1,1.9,3.3c2,0.2,2.8-1.2,2.8-1.2h0.4v0.7c0,0-1,1.2-3.3,1.1c-2-0.1-3.3-1.5-3.3-3.9
		c0-2.2,1.4-3.9,3.6-3.9c2.2,0,3.3,1.8,3.3,3.9H94.6z M98.5,56.9c0-1.5-0.3-2.7-1.6-2.7c-1.5,0-2.1,1.2-2.2,2.7H98.5z"/>
	<path class="st4" d="M105.9,60.4v0.7c-1.6,0.2-3.4,0.4-3.4-1.1v-5.7h-1.3v-0.6h1.3v-1.5l1.5-0.6v2.1h1.9v0.6h-1.9v5.6
		c0,1.3,1.6,0.5,1.6,0.5H105.9z"/>
	<path class="st4" d="M112.5,59.4c-0.2,1.4-1.6,1.9-2.6,1.9c-1.3,0-2.4-0.8-2.4-0.8v-1h0.3c0.5,0.6,1,1.2,2,1.2
		c1.1,0,1.5-0.6,1.5-1.1c0.1-2-3.8-1.3-3.8-4.1c0-1.2,1.1-2,2.5-2c1.3,0,2.1,0.8,2.1,0.8v0.9h-0.3c-0.3-0.5-0.8-1.1-1.7-1.1
		c-0.9,0-1.2,0.7-1.2,1.2C108.7,57.2,112.8,56.6,112.5,59.4z"/>
</g>
<linearGradient id="SVGID_3_" gradientUnits="userSpaceOnUse" x1="31.2087" y1="36.8835" x2="31.2087" y2="36.8835">
	<stop  offset="0" style="stop-color:#E9E9C6;stop-opacity:0.9"/>
	<stop  offset="0.2119" style="stop-color:#C9C9AF;stop-opacity:0.9212"/>
	<stop  offset="0.5713" style="stop-color:#98988C;stop-opacity:0.9571"/>
	<stop  offset="0.8455" style="stop-color:#7A7A76;stop-opacity:0.9846"/>
	<stop  offset="1" style="stop-color:#6F6F6E"/>
</linearGradient>
<path class="st5" d="M31.2,36.9"/>
<g>
	<path class="st2" d="M141.4,39.1c-0.1,2.3,0.2,5.2,3.3,5.5c3.3,0.3,4.7-2,4.7-2h0.6v1.2c0,0-1.6,2-5.6,1.8
		c-3.3-0.2-5.6-2.6-5.6-6.5c0-3.6,2.4-6.5,6.1-6.5c3.7,0,5.6,2.9,5.6,6.5H141.4z M148.1,38.2c0-2.4-0.5-4.6-2.8-4.6
		c-2.5,0-3.6,2.1-3.8,4.6H148.1z"/>
</g>
<g>
	<path class="st0" d="M95.7,16.9l-7.7-3l-8,3h-4.4v6.7H85c0-0.3-0.1-0.6-0.1-0.9c0-1.7,1.4-3,3-3s3,1.4,3,3c0,0.3,0,0.6,0,0.9h9.7
		v-6.7H95.7z"/>
	<g>
		<polygon class="st2" points="95.7,12.4 87.9,9.4 79.9,12.4 75.5,12.4 75.5,14.8 79.9,14.8 87.9,12.1 95.7,14.8 100.7,14.8 
			100.7,12.4 		"/>
	</g>
</g>
</svg>
